<mxfile host="app.diagrams.net" modified="2022-07-14T16:43:53.429Z" agent="5.0 (Macintosh; Intel Mac OS X 10_15_7) AppleWebKit/537.36 (KHTML, like Gecko) Chrome/103.0.0.0 Safari/537.36" etag="P4DbXFepl2LYIaJrEhsH" version="20.1.1" type="github">
  <diagram id="X1ivPwfzhMaHQt-KOeUw" name="Page-1">
    <mxGraphModel dx="1645" dy="3395" grid="1" gridSize="10" guides="1" tooltips="1" connect="1" arrows="1" fold="1" page="1" pageScale="1" pageWidth="1654" pageHeight="2336" math="0" shadow="0">
      <root>
        <mxCell id="0" />
        <mxCell id="1" parent="0" />
        <mxCell id="zOpJE-_zRrxswrugsxOP-1" value="" style="rounded=0;whiteSpace=wrap;html=1;dashed=1;" vertex="1" parent="1">
          <mxGeometry x="118" y="230" width="970" height="140" as="geometry" />
        </mxCell>
        <mxCell id="zOpJE-_zRrxswrugsxOP-3" value="Bucket: 0&lt;br&gt;stratLedgerId: 0&lt;br&gt;endLedgerId: 4" style="rounded=0;whiteSpace=wrap;html=1;" vertex="1" parent="1">
          <mxGeometry x="138" y="260" width="120" height="80" as="geometry" />
        </mxCell>
        <mxCell id="zOpJE-_zRrxswrugsxOP-4" value="Bucket: 1&lt;br&gt;Strat Ledger Id: 5&lt;br&gt;End Ledger Id: 9" style="rounded=0;whiteSpace=wrap;html=1;" vertex="1" parent="1">
          <mxGeometry x="278" y="260" width="120" height="80" as="geometry" />
        </mxCell>
        <mxCell id="zOpJE-_zRrxswrugsxOP-5" value="Bucket: 2&lt;br&gt;Strat Ledger Id: 10&lt;br&gt;endLedgerId: 14" style="rounded=0;whiteSpace=wrap;html=1;" vertex="1" parent="1">
          <mxGeometry x="408" y="260" width="120" height="80" as="geometry" />
        </mxCell>
        <mxCell id="zOpJE-_zRrxswrugsxOP-6" value="Bucket: 3&lt;br&gt;Strat Ledger Id: 15&lt;br&gt;endLedgerId: 19" style="rounded=0;whiteSpace=wrap;html=1;" vertex="1" parent="1">
          <mxGeometry x="538" y="260" width="120" height="80" as="geometry" />
        </mxCell>
        <mxCell id="zOpJE-_zRrxswrugsxOP-7" value="Bucket: 4&lt;br&gt;Strat Ledger Id: 20&lt;br&gt;endLedgerId: 24" style="rounded=0;whiteSpace=wrap;html=1;" vertex="1" parent="1">
          <mxGeometry x="672.5" y="260" width="120" height="80" as="geometry" />
        </mxCell>
        <mxCell id="zOpJE-_zRrxswrugsxOP-9" value="Bucket: 5&lt;br&gt;Strat Ledger Id: 25&lt;br&gt;endLedgerId: 29" style="rounded=0;whiteSpace=wrap;html=1;" vertex="1" parent="1">
          <mxGeometry x="808" y="260" width="120" height="80" as="geometry" />
        </mxCell>
        <mxCell id="zOpJE-_zRrxswrugsxOP-11" value="&lt;font style=&quot;font-size: 14px;&quot;&gt;&lt;b style=&quot;&quot;&gt;Immutable Delay Message Bukects&lt;/b&gt;&lt;/font&gt;" style="text;html=1;resizable=0;autosize=1;align=center;verticalAlign=middle;points=[];fillColor=none;strokeColor=none;rounded=0;" vertex="1" parent="1">
          <mxGeometry x="483" y="205" width="260" height="30" as="geometry" />
        </mxCell>
        <mxCell id="zOpJE-_zRrxswrugsxOP-13" value="" style="edgeStyle=orthogonalEdgeStyle;rounded=0;orthogonalLoop=1;jettySize=auto;html=1;shape=flexArrow;" edge="1" parent="1" target="zOpJE-_zRrxswrugsxOP-15">
          <mxGeometry relative="1" as="geometry">
            <mxPoint x="1150" y="300" as="sourcePoint" />
            <mxPoint x="1058" y="300" as="targetPoint" />
          </mxGeometry>
        </mxCell>
        <mxCell id="zOpJE-_zRrxswrugsxOP-12" value="&lt;b&gt;Last Mutable Bucket&lt;br&gt;&lt;/b&gt;&lt;br&gt;Strat Ledger Id: 30&lt;br&gt;endLedgerId: 34&lt;br&gt;Map&amp;lt;Long, BitSet&amp;gt;" style="rounded=0;whiteSpace=wrap;html=1;fillColor=#fff2cc;strokeColor=#d6b656;" vertex="1" parent="1">
          <mxGeometry x="1150" y="230" width="138" height="290" as="geometry" />
        </mxCell>
        <mxCell id="zOpJE-_zRrxswrugsxOP-15" value="Bucket: 6&lt;br&gt;Strat Ledger Id: 30&lt;br&gt;endLedgerId: 34" style="rounded=0;whiteSpace=wrap;html=1;dashed=1;" vertex="1" parent="1">
          <mxGeometry x="938" y="260" width="120" height="80" as="geometry" />
        </mxCell>
        <mxCell id="zOpJE-_zRrxswrugsxOP-25" value="" style="rounded=0;whiteSpace=wrap;html=1;dashed=1;" vertex="1" parent="1">
          <mxGeometry x="118" y="420" width="702" height="110" as="geometry" />
        </mxCell>
        <mxCell id="zOpJE-_zRrxswrugsxOP-23" value="Entry 0 (&lt;b&gt;Bucket Metadata&lt;/b&gt;)&lt;br&gt;Map&amp;lt;Long, BitSet&amp;gt;&lt;br&gt;Long&amp;lt;Long&amp;gt;" style="rounded=0;whiteSpace=wrap;html=1;" vertex="1" parent="1">
          <mxGeometry x="128" y="440" width="160" height="70" as="geometry" />
        </mxCell>
        <mxCell id="zOpJE-_zRrxswrugsxOP-27" value="Entry 1&lt;br&gt;SortedList" style="rounded=0;whiteSpace=wrap;html=1;fillColor=#d5e8d4;strokeColor=#82b366;" vertex="1" parent="1">
          <mxGeometry x="308" y="440" width="160" height="70" as="geometry" />
        </mxCell>
        <mxCell id="zOpJE-_zRrxswrugsxOP-28" value="Entry 2&lt;br&gt;SortedList" style="rounded=0;whiteSpace=wrap;html=1;" vertex="1" parent="1">
          <mxGeometry x="478" y="440" width="160" height="70" as="geometry" />
        </mxCell>
        <mxCell id="zOpJE-_zRrxswrugsxOP-29" value="Entry 3&lt;br&gt;SortedList" style="rounded=0;whiteSpace=wrap;html=1;" vertex="1" parent="1">
          <mxGeometry x="648" y="440" width="160" height="70" as="geometry" />
        </mxCell>
        <mxCell id="zOpJE-_zRrxswrugsxOP-37" value="" style="rounded=0;whiteSpace=wrap;html=1;dashed=1;" vertex="1" parent="1">
          <mxGeometry x="273" y="553" width="702" height="120" as="geometry" />
        </mxCell>
        <mxCell id="zOpJE-_zRrxswrugsxOP-38" value="Entry 0 (&lt;b&gt;Bucket Metadata&lt;/b&gt;)&lt;br&gt;Map&amp;lt;Long, BitSet&amp;gt;&lt;br&gt;Long&amp;lt;Long&amp;gt;" style="rounded=0;whiteSpace=wrap;html=1;" vertex="1" parent="1">
          <mxGeometry x="283" y="573" width="160" height="70" as="geometry" />
        </mxCell>
        <mxCell id="zOpJE-_zRrxswrugsxOP-39" value="Entry 1&lt;br&gt;SortedList" style="rounded=0;whiteSpace=wrap;html=1;fillColor=#d5e8d4;strokeColor=#82b366;" vertex="1" parent="1">
          <mxGeometry x="463" y="573" width="160" height="70" as="geometry" />
        </mxCell>
        <mxCell id="zOpJE-_zRrxswrugsxOP-40" value="Entry 2&lt;br&gt;SortedList" style="rounded=0;whiteSpace=wrap;html=1;" vertex="1" parent="1">
          <mxGeometry x="633" y="573" width="160" height="70" as="geometry" />
        </mxCell>
        <mxCell id="zOpJE-_zRrxswrugsxOP-41" value="Entry 3&lt;br&gt;SortedList" style="rounded=0;whiteSpace=wrap;html=1;" vertex="1" parent="1">
          <mxGeometry x="803" y="573" width="160" height="70" as="geometry" />
        </mxCell>
        <mxCell id="zOpJE-_zRrxswrugsxOP-49" value="" style="endArrow=none;html=1;rounded=0;fontSize=14;" edge="1" parent="1">
          <mxGeometry width="50" height="50" relative="1" as="geometry">
            <mxPoint x="398" y="930" as="sourcePoint" />
            <mxPoint x="1160" y="930" as="targetPoint" />
          </mxGeometry>
        </mxCell>
        <mxCell id="zOpJE-_zRrxswrugsxOP-50" value="" style="endArrow=none;html=1;rounded=0;fontSize=14;" edge="1" parent="1">
          <mxGeometry width="50" height="50" relative="1" as="geometry">
            <mxPoint x="398" y="1060" as="sourcePoint" />
            <mxPoint x="1150" y="1060" as="targetPoint" />
          </mxGeometry>
        </mxCell>
        <mxCell id="zOpJE-_zRrxswrugsxOP-51" value="&lt;font style=&quot;font-size: 14px;&quot;&gt;&lt;b style=&quot;&quot;&gt;Shared Delay Message Priority&amp;nbsp;&lt;/b&gt;&lt;b style=&quot;&quot;&gt;Queue&lt;/b&gt;&lt;/font&gt;" style="text;html=1;resizable=0;autosize=1;align=center;verticalAlign=middle;points=[];fillColor=none;strokeColor=none;rounded=0;" vertex="1" parent="1">
          <mxGeometry x="500" y="900" width="280" height="30" as="geometry" />
        </mxCell>
        <mxCell id="zOpJE-_zRrxswrugsxOP-52" value="" style="curved=1;endArrow=classic;html=1;rounded=0;fontSize=14;exitX=0.5;exitY=1;exitDx=0;exitDy=0;" edge="1" parent="1">
          <mxGeometry width="50" height="50" relative="1" as="geometry">
            <mxPoint x="398" y="510" as="sourcePoint" />
            <mxPoint x="426" y="1040" as="targetPoint" />
            <Array as="points">
              <mxPoint x="146" y="600" />
              <mxPoint x="50" y="870" />
              <mxPoint x="120" y="1070" />
            </Array>
          </mxGeometry>
        </mxCell>
        <mxCell id="zOpJE-_zRrxswrugsxOP-171" value="Load Snapshot" style="edgeLabel;html=1;align=center;verticalAlign=middle;resizable=0;points=[];fontSize=18;fontFamily=Helvetica;fontColor=#000000;" vertex="1" connectable="0" parent="zOpJE-_zRrxswrugsxOP-52">
          <mxGeometry x="-0.3659" y="6" relative="1" as="geometry">
            <mxPoint x="-37" y="45" as="offset" />
          </mxGeometry>
        </mxCell>
        <mxCell id="zOpJE-_zRrxswrugsxOP-54" value="" style="curved=1;endArrow=classic;html=1;rounded=0;fontSize=14;exitX=0.5;exitY=1;exitDx=0;exitDy=0;" edge="1" parent="1" source="zOpJE-_zRrxswrugsxOP-39">
          <mxGeometry width="50" height="50" relative="1" as="geometry">
            <mxPoint x="288" y="800" as="sourcePoint" />
            <mxPoint x="400" y="1020" as="targetPoint" />
            <Array as="points">
              <mxPoint x="120" y="720" />
              <mxPoint x="130" y="1020" />
            </Array>
          </mxGeometry>
        </mxCell>
        <mxCell id="zOpJE-_zRrxswrugsxOP-81" value="" style="endArrow=classic;html=1;rounded=0;fontSize=14;strokeColor=none;" edge="1" parent="1">
          <mxGeometry width="50" height="50" relative="1" as="geometry">
            <mxPoint x="200" y="1280" as="sourcePoint" />
            <mxPoint x="250" y="1230" as="targetPoint" />
          </mxGeometry>
        </mxCell>
        <mxCell id="zOpJE-_zRrxswrugsxOP-98" value="" style="group" vertex="1" connectable="0" parent="1">
          <mxGeometry x="630" y="943" width="170" height="111" as="geometry" />
        </mxCell>
        <mxCell id="zOpJE-_zRrxswrugsxOP-74" value="" style="ellipse;whiteSpace=wrap;html=1;aspect=fixed;dashed=1;fontSize=14;" vertex="1" parent="zOpJE-_zRrxswrugsxOP-98">
          <mxGeometry x="80" width="17.76" height="17.76" as="geometry" />
        </mxCell>
        <mxCell id="zOpJE-_zRrxswrugsxOP-75" value="" style="ellipse;whiteSpace=wrap;html=1;aspect=fixed;dashed=1;fontSize=14;" vertex="1" parent="zOpJE-_zRrxswrugsxOP-98">
          <mxGeometry x="40" y="48.84" width="17.76" height="17.76" as="geometry" />
        </mxCell>
        <mxCell id="zOpJE-_zRrxswrugsxOP-76" value="" style="ellipse;whiteSpace=wrap;html=1;aspect=fixed;dashed=1;fontSize=14;" vertex="1" parent="zOpJE-_zRrxswrugsxOP-98">
          <mxGeometry x="121" y="47.064" width="17.76" height="17.76" as="geometry" />
        </mxCell>
        <mxCell id="zOpJE-_zRrxswrugsxOP-77" value="" style="ellipse;whiteSpace=wrap;html=1;aspect=fixed;dashed=1;fontSize=14;" vertex="1" parent="zOpJE-_zRrxswrugsxOP-98">
          <mxGeometry y="93.24" width="17.76" height="17.76" as="geometry" />
        </mxCell>
        <mxCell id="zOpJE-_zRrxswrugsxOP-78" value="" style="ellipse;whiteSpace=wrap;html=1;aspect=fixed;dashed=1;fontSize=14;" vertex="1" parent="zOpJE-_zRrxswrugsxOP-98">
          <mxGeometry x="60" y="93.24" width="17.76" height="17.76" as="geometry" />
        </mxCell>
        <mxCell id="zOpJE-_zRrxswrugsxOP-79" value="" style="ellipse;whiteSpace=wrap;html=1;aspect=fixed;dashed=1;fontSize=14;" vertex="1" parent="zOpJE-_zRrxswrugsxOP-98">
          <mxGeometry x="105" y="93.24" width="17.76" height="17.76" as="geometry" />
        </mxCell>
        <mxCell id="zOpJE-_zRrxswrugsxOP-80" value="" style="ellipse;whiteSpace=wrap;html=1;aspect=fixed;dashed=1;fontSize=14;" vertex="1" parent="zOpJE-_zRrxswrugsxOP-98">
          <mxGeometry x="150" y="93.24" width="17.76" height="17.76" as="geometry" />
        </mxCell>
        <mxCell id="zOpJE-_zRrxswrugsxOP-84" value="" style="endArrow=classic;html=1;rounded=0;sketch=0;fontSize=14;entryX=1;entryY=0;entryDx=0;entryDy=0;shadow=0;" edge="1" parent="zOpJE-_zRrxswrugsxOP-98" target="zOpJE-_zRrxswrugsxOP-75">
          <mxGeometry width="50" height="50" relative="1" as="geometry">
            <mxPoint x="90" y="13.32" as="sourcePoint" />
            <mxPoint x="-80" y="-39.96" as="targetPoint" />
          </mxGeometry>
        </mxCell>
        <mxCell id="zOpJE-_zRrxswrugsxOP-85" value="" style="endArrow=classic;html=1;rounded=0;sketch=0;fontSize=14;entryX=0;entryY=0;entryDx=0;entryDy=0;shadow=0;exitX=0.5;exitY=1;exitDx=0;exitDy=0;" edge="1" parent="zOpJE-_zRrxswrugsxOP-98" source="zOpJE-_zRrxswrugsxOP-74" target="zOpJE-_zRrxswrugsxOP-76">
          <mxGeometry width="50" height="50" relative="1" as="geometry">
            <mxPoint x="100" y="22.2" as="sourcePoint" />
            <mxPoint x="67.0710678118653" y="60.32089178306361" as="targetPoint" />
          </mxGeometry>
        </mxCell>
        <mxCell id="zOpJE-_zRrxswrugsxOP-92" value="" style="endArrow=classic;html=1;rounded=0;shadow=0;sketch=0;fontSize=14;entryX=0.5;entryY=0;entryDx=0;entryDy=0;exitX=0;exitY=1;exitDx=0;exitDy=0;" edge="1" parent="zOpJE-_zRrxswrugsxOP-98" source="zOpJE-_zRrxswrugsxOP-75" target="zOpJE-_zRrxswrugsxOP-77">
          <mxGeometry width="50" height="50" relative="1" as="geometry">
            <mxPoint x="-100" y="137.64000000000001" as="sourcePoint" />
            <mxPoint x="-50" y="93.24" as="targetPoint" />
          </mxGeometry>
        </mxCell>
        <mxCell id="zOpJE-_zRrxswrugsxOP-94" value="" style="endArrow=classic;html=1;rounded=0;shadow=0;sketch=0;fontSize=14;entryX=0.5;entryY=0;entryDx=0;entryDy=0;exitX=0.5;exitY=1;exitDx=0;exitDy=0;" edge="1" parent="zOpJE-_zRrxswrugsxOP-98" source="zOpJE-_zRrxswrugsxOP-75" target="zOpJE-_zRrxswrugsxOP-78">
          <mxGeometry width="50" height="50" relative="1" as="geometry">
            <mxPoint x="-180" y="48.84" as="sourcePoint" />
            <mxPoint x="-130" y="4.44" as="targetPoint" />
          </mxGeometry>
        </mxCell>
        <mxCell id="zOpJE-_zRrxswrugsxOP-95" value="" style="endArrow=classic;html=1;rounded=0;shadow=0;sketch=0;fontSize=14;entryX=0.5;entryY=0;entryDx=0;entryDy=0;exitX=0.5;exitY=1;exitDx=0;exitDy=0;" edge="1" parent="zOpJE-_zRrxswrugsxOP-98" source="zOpJE-_zRrxswrugsxOP-76" target="zOpJE-_zRrxswrugsxOP-79">
          <mxGeometry width="50" height="50" relative="1" as="geometry">
            <mxPoint x="-130" y="57.72" as="sourcePoint" />
            <mxPoint x="-80" y="13.32" as="targetPoint" />
          </mxGeometry>
        </mxCell>
        <mxCell id="zOpJE-_zRrxswrugsxOP-96" value="" style="endArrow=classic;html=1;rounded=0;shadow=0;sketch=0;fontSize=14;entryX=0.5;entryY=0;entryDx=0;entryDy=0;exitX=0.5;exitY=1;exitDx=0;exitDy=0;" edge="1" parent="zOpJE-_zRrxswrugsxOP-98" source="zOpJE-_zRrxswrugsxOP-76" target="zOpJE-_zRrxswrugsxOP-80">
          <mxGeometry width="50" height="50" relative="1" as="geometry">
            <mxPoint x="-270" y="39.96" as="sourcePoint" />
            <mxPoint x="-220" y="-4.44" as="targetPoint" />
          </mxGeometry>
        </mxCell>
        <mxCell id="zOpJE-_zRrxswrugsxOP-119" value="" style="endArrow=classic;html=1;rounded=0;shadow=0;sketch=0;fontFamily=Helvetica;fontSize=14;shape=flexArrow;" edge="1" parent="1">
          <mxGeometry width="50" height="50" relative="1" as="geometry">
            <mxPoint x="1068" y="1000" as="sourcePoint" />
            <mxPoint x="1348" y="1000.17" as="targetPoint" />
          </mxGeometry>
        </mxCell>
        <mxCell id="zOpJE-_zRrxswrugsxOP-120" value="&lt;p style=&quot;&quot;&gt;&lt;br&gt;&lt;/p&gt;" style="edgeLabel;html=1;align=center;verticalAlign=middle;resizable=0;points=[];fontSize=14;fontFamily=Helvetica;" vertex="1" connectable="0" parent="zOpJE-_zRrxswrugsxOP-119">
          <mxGeometry x="0.3542" y="1" relative="1" as="geometry">
            <mxPoint x="-59" y="-24" as="offset" />
          </mxGeometry>
        </mxCell>
        <mxCell id="zOpJE-_zRrxswrugsxOP-121" value="Scheduled Messages" style="text;html=1;resizable=0;autosize=1;align=center;verticalAlign=middle;points=[];fillColor=none;strokeColor=none;rounded=0;dashed=1;labelBackgroundColor=#FFFFFF;fontFamily=Helvetica;fontSize=14;fontColor=#000000;" vertex="1" parent="1">
          <mxGeometry x="1128" y="960" width="160" height="30" as="geometry" />
        </mxCell>
        <mxCell id="zOpJE-_zRrxswrugsxOP-150" value="" style="rounded=1;whiteSpace=wrap;html=1;dashed=1;labelBackgroundColor=#FFFFFF;fontFamily=Helvetica;fontSize=18;fontColor=#000000;" vertex="1" parent="1">
          <mxGeometry x="110" y="-10" width="1117" height="130" as="geometry" />
        </mxCell>
        <mxCell id="zOpJE-_zRrxswrugsxOP-169" value="" style="shape=flexArrow;endArrow=classic;html=1;rounded=0;shadow=0;sketch=0;fontFamily=Helvetica;fontSize=18;fontColor=#000000;strokeWidth=1;fillColor=none;exitX=1;exitY=0.5;exitDx=0;exitDy=0;" edge="1" parent="1" source="zOpJE-_zRrxswrugsxOP-150">
          <mxGeometry width="50" height="50" relative="1" as="geometry">
            <mxPoint x="1300" y="-210" as="sourcePoint" />
            <mxPoint x="1040" y="810" as="targetPoint" />
            <Array as="points">
              <mxPoint x="1310" y="55" />
              <mxPoint x="1310" y="810" />
            </Array>
          </mxGeometry>
        </mxCell>
        <mxCell id="zOpJE-_zRrxswrugsxOP-170" value="addMessage" style="edgeLabel;html=1;align=center;verticalAlign=middle;resizable=0;points=[];fontSize=18;fontFamily=Helvetica;fontColor=#000000;" vertex="1" connectable="0" parent="zOpJE-_zRrxswrugsxOP-169">
          <mxGeometry x="-0.0504" y="-4" relative="1" as="geometry">
            <mxPoint x="8" y="223" as="offset" />
          </mxGeometry>
        </mxCell>
        <mxCell id="zOpJE-_zRrxswrugsxOP-172" value="Load Snapshot" style="edgeLabel;html=1;align=center;verticalAlign=middle;resizable=0;points=[];fontSize=18;fontFamily=Helvetica;fontColor=#000000;" vertex="1" connectable="0" parent="1">
          <mxGeometry x="149.99926797323303" y="809.9962243353654" as="geometry" />
        </mxCell>
        <mxCell id="zOpJE-_zRrxswrugsxOP-180" value="" style="endArrow=none;html=1;rounded=0;fontSize=14;" edge="1" parent="1">
          <mxGeometry width="50" height="50" relative="1" as="geometry">
            <mxPoint x="400" y="733" as="sourcePoint" />
            <mxPoint x="1150" y="733" as="targetPoint" />
          </mxGeometry>
        </mxCell>
        <mxCell id="zOpJE-_zRrxswrugsxOP-181" value="" style="endArrow=none;html=1;rounded=0;fontSize=14;" edge="1" parent="1">
          <mxGeometry width="50" height="50" relative="1" as="geometry">
            <mxPoint x="400" y="860" as="sourcePoint" />
            <mxPoint x="1160" y="860" as="targetPoint" />
          </mxGeometry>
        </mxCell>
        <mxCell id="zOpJE-_zRrxswrugsxOP-182" value="" style="group" vertex="1" connectable="0" parent="1">
          <mxGeometry x="642" y="743" width="170" height="111" as="geometry" />
        </mxCell>
        <mxCell id="zOpJE-_zRrxswrugsxOP-183" value="" style="ellipse;whiteSpace=wrap;html=1;aspect=fixed;dashed=1;fontSize=14;" vertex="1" parent="zOpJE-_zRrxswrugsxOP-182">
          <mxGeometry x="80" width="17.76" height="17.76" as="geometry" />
        </mxCell>
        <mxCell id="zOpJE-_zRrxswrugsxOP-184" value="" style="ellipse;whiteSpace=wrap;html=1;aspect=fixed;dashed=1;fontSize=14;" vertex="1" parent="zOpJE-_zRrxswrugsxOP-182">
          <mxGeometry x="40" y="48.84" width="17.76" height="17.76" as="geometry" />
        </mxCell>
        <mxCell id="zOpJE-_zRrxswrugsxOP-185" value="" style="ellipse;whiteSpace=wrap;html=1;aspect=fixed;dashed=1;fontSize=14;" vertex="1" parent="zOpJE-_zRrxswrugsxOP-182">
          <mxGeometry x="121" y="47.064" width="17.76" height="17.76" as="geometry" />
        </mxCell>
        <mxCell id="zOpJE-_zRrxswrugsxOP-186" value="" style="ellipse;whiteSpace=wrap;html=1;aspect=fixed;dashed=1;fontSize=14;" vertex="1" parent="zOpJE-_zRrxswrugsxOP-182">
          <mxGeometry y="93.24" width="17.76" height="17.76" as="geometry" />
        </mxCell>
        <mxCell id="zOpJE-_zRrxswrugsxOP-187" value="" style="ellipse;whiteSpace=wrap;html=1;aspect=fixed;dashed=1;fontSize=14;" vertex="1" parent="zOpJE-_zRrxswrugsxOP-182">
          <mxGeometry x="60" y="93.24" width="17.76" height="17.76" as="geometry" />
        </mxCell>
        <mxCell id="zOpJE-_zRrxswrugsxOP-188" value="" style="ellipse;whiteSpace=wrap;html=1;aspect=fixed;dashed=1;fontSize=14;" vertex="1" parent="zOpJE-_zRrxswrugsxOP-182">
          <mxGeometry x="105" y="93.24" width="17.76" height="17.76" as="geometry" />
        </mxCell>
        <mxCell id="zOpJE-_zRrxswrugsxOP-189" value="" style="ellipse;whiteSpace=wrap;html=1;aspect=fixed;dashed=1;fontSize=14;" vertex="1" parent="zOpJE-_zRrxswrugsxOP-182">
          <mxGeometry x="150" y="93.24" width="17.76" height="17.76" as="geometry" />
        </mxCell>
        <mxCell id="zOpJE-_zRrxswrugsxOP-190" value="" style="endArrow=classic;html=1;rounded=0;sketch=0;fontSize=14;entryX=1;entryY=0;entryDx=0;entryDy=0;shadow=0;" edge="1" parent="zOpJE-_zRrxswrugsxOP-182" target="zOpJE-_zRrxswrugsxOP-184">
          <mxGeometry width="50" height="50" relative="1" as="geometry">
            <mxPoint x="90" y="13.32" as="sourcePoint" />
            <mxPoint x="-80" y="-39.96" as="targetPoint" />
          </mxGeometry>
        </mxCell>
        <mxCell id="zOpJE-_zRrxswrugsxOP-191" value="" style="endArrow=classic;html=1;rounded=0;sketch=0;fontSize=14;entryX=0;entryY=0;entryDx=0;entryDy=0;shadow=0;exitX=0.5;exitY=1;exitDx=0;exitDy=0;" edge="1" parent="zOpJE-_zRrxswrugsxOP-182" source="zOpJE-_zRrxswrugsxOP-183" target="zOpJE-_zRrxswrugsxOP-185">
          <mxGeometry width="50" height="50" relative="1" as="geometry">
            <mxPoint x="100" y="22.2" as="sourcePoint" />
            <mxPoint x="67.0710678118653" y="60.32089178306361" as="targetPoint" />
          </mxGeometry>
        </mxCell>
        <mxCell id="zOpJE-_zRrxswrugsxOP-192" value="" style="endArrow=classic;html=1;rounded=0;shadow=0;sketch=0;fontSize=14;entryX=0.5;entryY=0;entryDx=0;entryDy=0;exitX=0;exitY=1;exitDx=0;exitDy=0;" edge="1" parent="zOpJE-_zRrxswrugsxOP-182" source="zOpJE-_zRrxswrugsxOP-184" target="zOpJE-_zRrxswrugsxOP-186">
          <mxGeometry width="50" height="50" relative="1" as="geometry">
            <mxPoint x="-100" y="137.64000000000001" as="sourcePoint" />
            <mxPoint x="-50" y="93.24" as="targetPoint" />
          </mxGeometry>
        </mxCell>
        <mxCell id="zOpJE-_zRrxswrugsxOP-193" value="" style="endArrow=classic;html=1;rounded=0;shadow=0;sketch=0;fontSize=14;entryX=0.5;entryY=0;entryDx=0;entryDy=0;exitX=0.5;exitY=1;exitDx=0;exitDy=0;" edge="1" parent="zOpJE-_zRrxswrugsxOP-182" source="zOpJE-_zRrxswrugsxOP-184" target="zOpJE-_zRrxswrugsxOP-187">
          <mxGeometry width="50" height="50" relative="1" as="geometry">
            <mxPoint x="-180" y="48.84" as="sourcePoint" />
            <mxPoint x="-130" y="4.44" as="targetPoint" />
          </mxGeometry>
        </mxCell>
        <mxCell id="zOpJE-_zRrxswrugsxOP-194" value="" style="endArrow=classic;html=1;rounded=0;shadow=0;sketch=0;fontSize=14;entryX=0.5;entryY=0;entryDx=0;entryDy=0;exitX=0.5;exitY=1;exitDx=0;exitDy=0;" edge="1" parent="zOpJE-_zRrxswrugsxOP-182" source="zOpJE-_zRrxswrugsxOP-185" target="zOpJE-_zRrxswrugsxOP-188">
          <mxGeometry width="50" height="50" relative="1" as="geometry">
            <mxPoint x="-130" y="57.72" as="sourcePoint" />
            <mxPoint x="-80" y="13.32" as="targetPoint" />
          </mxGeometry>
        </mxCell>
        <mxCell id="zOpJE-_zRrxswrugsxOP-195" value="" style="endArrow=classic;html=1;rounded=0;shadow=0;sketch=0;fontSize=14;entryX=0.5;entryY=0;entryDx=0;entryDy=0;exitX=0.5;exitY=1;exitDx=0;exitDy=0;" edge="1" parent="zOpJE-_zRrxswrugsxOP-182" source="zOpJE-_zRrxswrugsxOP-185" target="zOpJE-_zRrxswrugsxOP-189">
          <mxGeometry width="50" height="50" relative="1" as="geometry">
            <mxPoint x="-270" y="39.96" as="sourcePoint" />
            <mxPoint x="-220" y="-4.44" as="targetPoint" />
          </mxGeometry>
        </mxCell>
        <mxCell id="zOpJE-_zRrxswrugsxOP-200" value="" style="curved=1;endArrow=classic;html=1;rounded=0;shadow=0;sketch=0;fontFamily=Helvetica;fontSize=18;fontColor=#000000;strokeWidth=1;fillColor=none;shape=flexArrow;" edge="1" parent="1">
          <mxGeometry width="50" height="50" relative="1" as="geometry">
            <mxPoint x="430" y="800" as="sourcePoint" />
            <mxPoint x="420" y="1000" as="targetPoint" />
            <Array as="points">
              <mxPoint x="320" y="800" />
              <mxPoint x="320" y="1000" />
            </Array>
          </mxGeometry>
        </mxCell>
        <mxCell id="zOpJE-_zRrxswrugsxOP-201" value="Text" style="edgeLabel;html=1;align=center;verticalAlign=middle;resizable=0;points=[];fontSize=18;fontFamily=Helvetica;fontColor=#000000;" vertex="1" connectable="0" parent="zOpJE-_zRrxswrugsxOP-200">
          <mxGeometry x="0.0053" relative="1" as="geometry">
            <mxPoint as="offset" />
          </mxGeometry>
        </mxCell>
        <mxCell id="zOpJE-_zRrxswrugsxOP-203" value="" style="endArrow=classic;html=1;rounded=0;shadow=0;sketch=0;fontFamily=Helvetica;fontSize=18;fontColor=#000000;strokeWidth=1;fillColor=none;exitX=0.5;exitY=1;exitDx=0;exitDy=0;entryX=0.114;entryY=0;entryDx=0;entryDy=0;entryPerimeter=0;" edge="1" parent="1" source="zOpJE-_zRrxswrugsxOP-3" target="zOpJE-_zRrxswrugsxOP-25">
          <mxGeometry width="50" height="50" relative="1" as="geometry">
            <mxPoint x="194" y="330" as="sourcePoint" />
            <mxPoint x="198" y="410" as="targetPoint" />
          </mxGeometry>
        </mxCell>
        <mxCell id="zOpJE-_zRrxswrugsxOP-204" value="" style="endArrow=classic;html=1;rounded=0;shadow=0;sketch=0;fontFamily=Helvetica;fontSize=18;fontColor=#000000;strokeWidth=1;fillColor=none;exitX=0.5;exitY=1;exitDx=0;exitDy=0;entryX=0.989;entryY=0.592;entryDx=0;entryDy=0;entryPerimeter=0;" edge="1" parent="1" source="zOpJE-_zRrxswrugsxOP-15" target="zOpJE-_zRrxswrugsxOP-37">
          <mxGeometry width="50" height="50" relative="1" as="geometry">
            <mxPoint x="208" y="350" as="sourcePoint" />
            <mxPoint x="208.02800000000002" y="430" as="targetPoint" />
            <Array as="points">
              <mxPoint x="998" y="624" />
            </Array>
          </mxGeometry>
        </mxCell>
        <mxCell id="zOpJE-_zRrxswrugsxOP-209" value="&lt;font style=&quot;font-size: 14px;&quot;&gt;&lt;b style=&quot;&quot;&gt;Last Mutable Delay Message Priority Queue&lt;/b&gt;&lt;/font&gt;" style="text;html=1;resizable=0;autosize=1;align=center;verticalAlign=middle;points=[];fillColor=none;strokeColor=none;rounded=0;" vertex="1" parent="1">
          <mxGeometry x="513.5021888412018" y="700" width="310" height="30" as="geometry" />
        </mxCell>
        <mxCell id="zOpJE-_zRrxswrugsxOP-212" value="" style="endArrow=classic;html=1;rounded=0;shadow=0;sketch=0;fontFamily=Helvetica;fontSize=18;fontColor=#000000;strokeWidth=1;fillColor=none;dashed=1;" edge="1" parent="1">
          <mxGeometry width="50" height="50" relative="1" as="geometry">
            <mxPoint x="1150" y="450" as="sourcePoint" />
            <mxPoint x="1060" y="730" as="targetPoint" />
            <Array as="points">
              <mxPoint x="1060" y="450" />
            </Array>
          </mxGeometry>
        </mxCell>
        <mxCell id="zOpJE-_zRrxswrugsxOP-213" value="&lt;font style=&quot;font-size: 18px;&quot;&gt;&lt;b&gt;Topic&lt;/b&gt;&lt;/font&gt;" style="text;html=1;resizable=0;autosize=1;align=center;verticalAlign=middle;points=[];fillColor=none;strokeColor=none;rounded=0;dashed=1;labelBackgroundColor=#FFFFFF;fontFamily=Helvetica;fontSize=18;fontColor=#000000;" vertex="1" parent="1">
          <mxGeometry x="35" y="35" width="70" height="40" as="geometry" />
        </mxCell>
        <mxCell id="zOpJE-_zRrxswrugsxOP-214" value="Ledger 0" style="rounded=0;whiteSpace=wrap;html=1;dashed=1;labelBackgroundColor=#FFFFFF;fontFamily=Helvetica;fontSize=18;fontColor=#333333;fillColor=#f5f5f5;strokeColor=#666666;" vertex="1" parent="1">
          <mxGeometry x="138" y="25" width="120" height="60" as="geometry" />
        </mxCell>
        <mxCell id="zOpJE-_zRrxswrugsxOP-217" value="Ledger 1" style="rounded=0;whiteSpace=wrap;html=1;dashed=1;labelBackgroundColor=#FFFFFF;fontFamily=Helvetica;fontSize=18;fontColor=#333333;fillColor=#f5f5f5;strokeColor=#666666;" vertex="1" parent="1">
          <mxGeometry x="273" y="25" width="120" height="60" as="geometry" />
        </mxCell>
        <mxCell id="zOpJE-_zRrxswrugsxOP-218" value="......." style="rounded=0;whiteSpace=wrap;html=1;dashed=1;labelBackgroundColor=#FFFFFF;fontFamily=Helvetica;fontSize=18;fontColor=#333333;fillColor=#f5f5f5;strokeColor=#666666;" vertex="1" parent="1">
          <mxGeometry x="408" y="25" width="120" height="60" as="geometry" />
        </mxCell>
        <mxCell id="zOpJE-_zRrxswrugsxOP-219" value="Ledger 23" style="rounded=0;whiteSpace=wrap;html=1;dashed=1;labelBackgroundColor=#FFFFFF;fontFamily=Helvetica;fontSize=18;fontColor=#333333;fillColor=#f5f5f5;strokeColor=#666666;" vertex="1" parent="1">
          <mxGeometry x="543" y="25" width="120" height="60" as="geometry" />
        </mxCell>
        <mxCell id="zOpJE-_zRrxswrugsxOP-220" value="Ledger 24" style="rounded=0;whiteSpace=wrap;html=1;dashed=1;labelBackgroundColor=#FFFFFF;fontFamily=Helvetica;fontSize=18;fontColor=#333333;fillColor=#f5f5f5;strokeColor=#666666;" vertex="1" parent="1">
          <mxGeometry x="683" y="25" width="120" height="60" as="geometry" />
        </mxCell>
        <mxCell id="zOpJE-_zRrxswrugsxOP-221" value="Ledger 26" style="rounded=0;whiteSpace=wrap;html=1;dashed=1;labelBackgroundColor=#FFFFFF;fontFamily=Helvetica;fontSize=18;fontColor=#333333;fillColor=#f5f5f5;strokeColor=#666666;" vertex="1" parent="1">
          <mxGeometry x="963" y="25" width="120" height="60" as="geometry" />
        </mxCell>
        <mxCell id="zOpJE-_zRrxswrugsxOP-222" value="Ledger 25" style="rounded=0;whiteSpace=wrap;html=1;dashed=1;labelBackgroundColor=#FFFFFF;fontFamily=Helvetica;fontSize=18;fontColor=#333333;fillColor=#f5f5f5;strokeColor=#666666;" vertex="1" parent="1">
          <mxGeometry x="827" y="25" width="120" height="60" as="geometry" />
        </mxCell>
        <mxCell id="zOpJE-_zRrxswrugsxOP-223" value="&lt;span style=&quot;background-color: rgb(213, 232, 212);&quot;&gt;Ledger 27&lt;/span&gt;" style="rounded=0;whiteSpace=wrap;html=1;dashed=1;labelBackgroundColor=#FFFFFF;fontFamily=Helvetica;fontSize=18;fillColor=#d5e8d4;strokeColor=#82b366;" vertex="1" parent="1">
          <mxGeometry x="1100" y="25" width="120" height="60" as="geometry" />
        </mxCell>
      </root>
    </mxGraphModel>
  </diagram>
</mxfile>
